<?xml version="1.0" standalone="no"?>
<!DOCTYPE svg PUBLIC "-//W3C//DTD SVG 20010904//EN"
 "http://www.w3.org/TR/2001/REC-SVG-20010904/DTD/svg10.dtd">
<svg version="1.0" xmlns="http://www.w3.org/2000/svg"
 width="355.000000pt" height="355.000000pt" viewBox="0 0 355.000000 355.000000"
 preserveAspectRatio="xMidYMid meet">
<metadata>
Created by potrace 1.11, written by Peter Selinger 2001-2013
</metadata>
<g transform="translate(0.000000,355.000000) scale(0.100000,-0.100000)"
fill="#000000" stroke="none">
<path d="M1819 2435 c-110 -35 -157 -159 -102 -268 19 -38 81 -80 165 -113 71
-28 92 -49 67 -65 -24 -15 -58 -10 -71 11 -11 17 -24 20 -96 20 l-83 0 3 -72
3 -73 65 -17 c73 -19 226 -23 281 -8 91 25 140 89 141 183 1 103 -50 161 -182
207 -81 29 -89 36 -68 56 19 20 68 12 68 -11 0 -12 17 -15 85 -15 l85 0 0 69
0 69 -47 17 c-67 24 -252 30 -314 10z"/>
<path d="M50 2380 l0 -60 40 0 40 0 0 -154 c0 -182 -4 -192 -77 -181 l-43 6 0
-69 c0 -81 1 -82 113 -82 107 0 172 36 208 115 16 34 19 66 19 203 l0 162 25
0 c24 0 25 3 25 60 l0 60 -175 0 -175 0 0 -60z"/>
<path d="M496 2388 c-9 -29 -37 -134 -64 -233 -37 -133 -53 -181 -66 -183 -13
-3 -16 -16 -16 -63 l0 -59 135 0 135 0 0 60 c0 58 -1 60 -26 60 -20 0 -25 4
-20 16 3 9 6 22 6 30 0 21 96 20 104 -2 11 -29 6 -44 -14 -44 -18 0 -20 -7
-20 -60 l0 -60 150 0 150 0 0 60 c0 46 -3 60 -15 60 -8 0 -19 16 -24 38 -6 20
-35 125 -64 232 l-53 195 -142 3 -141 3 -15 -53z m164 -260 c0 -13 -8 -18 -30
-18 -34 0 -33 -2 -20 60 22 100 22 99 36 35 7 -33 13 -68 14 -77z"/>
<path d="M970 2380 c0 -57 1 -60 25 -60 l25 0 0 -175 0 -175 -25 0 c-24 0 -25
-3 -25 -60 l0 -60 140 0 140 0 0 60 c0 57 -1 60 -25 60 l-25 0 0 100 c0 55 2
100 4 100 2 0 51 -72 108 -160 l103 -160 113 0 112 0 0 235 c0 228 1 235 20
235 18 0 20 7 20 60 l0 60 -135 0 -135 0 0 -60 c0 -57 1 -60 25 -60 25 0 25
-1 25 -87 0 -50 -4 -83 -9 -78 -5 6 -50 72 -100 148 l-91 137 -145 0 -145 0 0
-60z"/>
<path d="M2230 2380 c0 -53 2 -60 20 -60 19 0 20 -7 20 -175 0 -168 -1 -175
-20 -175 -18 0 -20 -7 -20 -60 l0 -60 260 0 260 0 0 115 0 115 -85 0 -85 0 0
-55 0 -55 -45 0 -45 0 0 70 0 70 35 0 c34 0 35 1 35 40 0 39 -1 40 -35 40
l-35 0 0 65 0 65 45 0 45 0 0 -55 0 -55 85 0 85 0 0 115 0 115 -260 0 -260 0
0 -60z"/>
<path d="M2780 2380 c0 -57 1 -60 25 -60 l25 0 0 -175 0 -175 -25 0 c-24 0
-25 -3 -25 -60 l0 -60 140 0 140 0 0 60 c0 57 -1 60 -25 60 l-25 0 0 100 c0
55 2 100 4 100 2 0 51 -72 108 -160 l103 -160 113 0 112 0 0 235 c0 228 1 235
20 235 18 0 20 7 20 60 l0 60 -135 0 -135 0 0 -60 c0 -57 1 -60 25 -60 25 0
25 -1 25 -87 0 -50 -4 -83 -9 -78 -5 6 -50 72 -100 148 l-91 137 -145 0 -145
0 0 -60z"/>
<path d="M10 1714 c0 -28 6 -51 14 -58 7 -6 21 -42 30 -81 9 -38 31 -123 48
-187 l31 -118 117 0 117 0 49 195 c31 124 53 195 61 195 9 0 13 17 13 50 l0
50 -105 0 -105 0 0 -50 c0 -37 4 -50 15 -50 10 0 13 -8 9 -27 -2 -16 -13 -73
-22 -128 l-18 -100 -18 110 c-9 61 -20 118 -22 128 -4 11 0 17 10 17 12 0 16
11 16 50 l0 50 -120 0 -120 0 0 -46z"/>
<path d="M500 1710 c0 -43 3 -50 20 -50 19 0 20 -7 20 -145 0 -138 -1 -145
-20 -145 -17 0 -20 -7 -20 -50 l0 -50 220 0 220 0 0 95 0 95 -75 0 -75 0 0
-45 c0 -45 0 -45 -35 -45 l-35 0 0 60 0 60 30 0 c28 0 30 3 30 35 0 32 -2 35
-30 35 -29 0 -30 1 -30 50 l0 50 35 0 c35 0 35 0 35 -45 l0 -45 75 0 75 0 0
95 0 95 -220 0 -220 0 0 -50z"/>
<path d="M960 1710 c0 -43 3 -50 20 -50 19 0 20 -7 20 -145 0 -138 -1 -145
-20 -145 -17 0 -20 -7 -20 -50 l0 -50 135 0 135 0 0 50 c0 47 -2 50 -25 50
-24 0 -25 3 -25 55 0 58 3 61 44 45 25 -9 26 -12 26 -105 l0 -95 105 0 105 0
0 50 c0 36 -4 50 -14 50 -9 0 -15 16 -19 47 -4 36 -12 53 -32 69 -21 17 -24
22 -11 27 47 18 61 152 20 198 -37 42 -73 49 -264 49 l-180 0 0 -50z m278 -62
c7 -7 12 -26 12 -43 0 -37 -16 -55 -47 -55 -21 0 -23 4 -23 55 0 51 2 55 23
55 13 0 28 -5 35 -12z"/>
<path d="M1480 1710 c0 -43 3 -50 20 -50 19 0 20 -7 20 -145 0 -138 -1 -145
-20 -145 -17 0 -20 -7 -20 -50 l0 -50 125 0 125 0 0 50 c0 38 -4 50 -15 50
-12 0 -15 13 -15 55 l0 55 45 0 45 0 0 -55 c0 -42 -3 -55 -15 -55 -11 0 -15
-12 -15 -50 l0 -50 125 0 125 0 0 50 c0 43 -3 50 -20 50 -19 0 -20 7 -20 145
0 138 1 145 20 145 17 0 20 7 20 50 l0 50 -125 0 -125 0 0 -50 c0 -38 4 -50
15 -50 11 0 15 -12 15 -50 l0 -50 -45 0 -45 0 0 50 c0 38 4 50 15 50 11 0 15
12 15 50 l0 50 -125 0 -125 0 0 -50z"/>
<path d="M2030 1710 c0 -43 3 -50 20 -50 19 0 20 -7 20 -133 0 -118 3 -138 23
-177 34 -69 87 -92 200 -88 93 4 120 16 161 72 19 24 21 44 24 177 3 139 5
149 23 149 16 0 19 7 19 50 l0 50 -115 0 -115 0 0 -50 c0 -38 4 -50 15 -50 23
0 22 -262 -1 -281 -11 -9 -20 -10 -32 -2 -24 15 -31 283 -7 283 11 0 15 12 15
50 l0 50 -125 0 -125 0 0 -50z"/>
<path d="M2530 1710 c0 -43 3 -50 20 -50 19 0 20 -7 20 -133 0 -118 3 -138 23
-177 34 -69 87 -92 200 -88 93 4 120 16 161 72 19 24 21 44 24 177 3 139 5
149 23 149 16 0 19 7 19 50 l0 50 -115 0 -115 0 0 -50 c0 -38 4 -50 15 -50 23
0 22 -262 -1 -281 -11 -9 -20 -10 -32 -2 -24 15 -31 283 -7 283 11 0 15 12 15
50 l0 50 -125 0 -125 0 0 -50z"/>
<path d="M3040 1710 c0 -43 3 -50 20 -50 19 0 20 -7 20 -145 0 -138 -1 -145
-20 -145 -17 0 -20 -7 -20 -50 l0 -50 135 0 135 0 0 50 c0 47 -2 50 -25 50
-24 0 -25 3 -25 55 0 58 3 61 44 45 25 -9 26 -12 26 -105 l0 -95 105 0 105 0
0 50 c0 36 -4 50 -14 50 -9 0 -15 16 -19 47 -4 36 -12 53 -32 69 -21 17 -24
22 -11 27 47 18 61 152 20 198 -37 42 -73 49 -264 49 l-180 0 0 -50z m278 -62
c7 -7 12 -26 12 -43 0 -37 -16 -55 -47 -55 -21 0 -23 4 -23 55 0 51 2 55 23
55 13 0 28 -5 35 -12z"/>
<path d="M0 1130 l0 -30 1775 0 1775 0 0 30 0 30 -1775 0 -1775 0 0 -30z"/>
</g>
</svg>
